G75*
G70*
%OFA0B0*%
%FSLAX24Y24*%
%IPPOS*%
%LPD*%
%AMOC8*
5,1,8,0,0,1.08239X$1,22.5*
%
%ADD10C,0.0000*%
%ADD11C,0.0030*%
%ADD12C,0.0080*%
%ADD13C,0.0050*%
D10*
X000101Y000101D02*
X000101Y022101D01*
X008101Y022101D01*
X008101Y000101D01*
X000101Y000101D01*
D11*
X001459Y002116D02*
X001398Y002177D01*
X001459Y002116D02*
X001583Y002116D01*
X001645Y002177D01*
X001645Y002301D01*
X001583Y002363D01*
X001521Y002363D01*
X001398Y002301D01*
X001398Y002486D01*
X001645Y002486D01*
X001766Y002363D02*
X001890Y002116D01*
X002013Y002363D01*
X002670Y002424D02*
X002670Y002177D01*
X002731Y002116D01*
X002855Y002116D01*
X002917Y002177D01*
X002917Y002301D01*
X002793Y002301D01*
X002670Y002424D02*
X002731Y002486D01*
X002855Y002486D01*
X002917Y002424D01*
X003038Y002363D02*
X003038Y002116D01*
X003038Y002363D02*
X003223Y002363D01*
X003285Y002301D01*
X003285Y002116D01*
X003406Y002177D02*
X003406Y002301D01*
X003468Y002363D01*
X003653Y002363D01*
X003653Y002486D02*
X003653Y002116D01*
X003468Y002116D01*
X003406Y002177D01*
X003401Y004366D02*
X003339Y004427D01*
X003339Y004551D01*
X003401Y004613D01*
X003586Y004613D01*
X003524Y004796D02*
X003586Y004858D01*
X003524Y004796D02*
X003277Y004796D01*
X003339Y004734D02*
X003339Y004858D01*
X003339Y004980D02*
X003339Y005103D01*
X003277Y005041D02*
X003524Y005041D01*
X003586Y005103D01*
X003586Y005225D02*
X003586Y005410D01*
X003524Y005472D01*
X003401Y005472D01*
X003339Y005410D01*
X003339Y005225D01*
X003709Y005225D01*
X003586Y005593D02*
X003524Y005593D01*
X003524Y005655D01*
X003586Y005655D01*
X003586Y005593D01*
X003586Y005778D02*
X003215Y006024D01*
X003215Y006393D02*
X003586Y006146D01*
X003586Y006514D02*
X003586Y006761D01*
X003524Y006882D02*
X003586Y006944D01*
X003586Y007129D01*
X003647Y007129D02*
X003709Y007068D01*
X003709Y007006D01*
X003647Y007129D02*
X003339Y007129D01*
X003339Y007251D02*
X003339Y007436D01*
X003401Y007498D01*
X003524Y007498D01*
X003586Y007436D01*
X003586Y007251D01*
X003524Y006882D02*
X003339Y006882D01*
X003339Y006761D02*
X003586Y006514D01*
X003339Y006514D02*
X003339Y006761D01*
X003339Y007251D02*
X003709Y007251D01*
X003586Y007619D02*
X003215Y007619D01*
X003339Y007681D02*
X003339Y007804D01*
X003401Y007866D01*
X003586Y007866D01*
X003524Y007987D02*
X003586Y008049D01*
X003586Y008173D01*
X003524Y008234D01*
X003401Y008234D01*
X003339Y008173D01*
X003339Y008049D01*
X003401Y007987D01*
X003524Y007987D01*
X003339Y007681D02*
X003401Y007619D01*
X003339Y008356D02*
X003339Y008541D01*
X003401Y008603D01*
X003586Y008603D01*
X003586Y008724D02*
X003524Y008724D01*
X003524Y008786D01*
X003586Y008786D01*
X003586Y008724D01*
X003524Y008908D02*
X003586Y008970D01*
X003586Y009155D01*
X003524Y009276D02*
X003586Y009338D01*
X003586Y009462D01*
X003524Y009523D01*
X003401Y009523D01*
X003339Y009462D01*
X003339Y009338D01*
X003401Y009276D01*
X003524Y009276D01*
X003339Y008970D02*
X003401Y008908D01*
X003524Y008908D01*
X003339Y008970D02*
X003339Y009155D01*
X003339Y009645D02*
X003339Y009706D01*
X003401Y009768D01*
X003339Y009830D01*
X003401Y009892D01*
X003586Y009892D01*
X003586Y010013D02*
X003215Y010260D01*
X003339Y010443D02*
X003339Y010628D01*
X003215Y010628D02*
X003586Y010628D01*
X003586Y010443D01*
X003524Y010381D01*
X003401Y010381D01*
X003339Y010443D01*
X003339Y010811D02*
X003339Y010935D01*
X003401Y010997D01*
X003586Y010997D01*
X003586Y010811D01*
X003524Y010750D01*
X003462Y010811D01*
X003462Y010997D01*
X003586Y011118D02*
X003586Y011241D01*
X003586Y011180D02*
X003339Y011180D01*
X003339Y011118D01*
X003215Y011180D02*
X003154Y011180D01*
X003339Y011425D02*
X003339Y011610D01*
X003339Y011732D02*
X003524Y011732D01*
X003586Y011794D01*
X003586Y011979D01*
X003647Y011979D02*
X003709Y011917D01*
X003709Y011855D01*
X003647Y011979D02*
X003339Y011979D01*
X003401Y012100D02*
X003339Y012162D01*
X003339Y012347D01*
X003401Y012468D02*
X003339Y012530D01*
X003339Y012654D01*
X003401Y012715D01*
X003586Y012715D01*
X003586Y012837D02*
X003586Y012960D01*
X003586Y012898D02*
X003339Y012898D01*
X003339Y012837D01*
X003215Y012898D02*
X003154Y012898D01*
X003277Y013144D02*
X003215Y013206D01*
X003277Y013144D02*
X003586Y013144D01*
X003524Y013389D02*
X003586Y013451D01*
X003524Y013389D02*
X003277Y013389D01*
X003339Y013328D02*
X003339Y013451D01*
X003401Y013206D02*
X003401Y013082D01*
X003215Y012468D02*
X003586Y012468D01*
X003524Y012347D02*
X003462Y012285D01*
X003462Y012162D01*
X003401Y012100D01*
X003586Y012285D02*
X003524Y012347D01*
X003586Y012285D02*
X003586Y012100D01*
X003524Y011610D02*
X003462Y011549D01*
X003462Y011425D01*
X003401Y011364D01*
X003339Y011425D01*
X003524Y011610D02*
X003586Y011549D01*
X003586Y011364D01*
X003586Y009768D02*
X003401Y009768D01*
X003339Y009645D02*
X003586Y009645D01*
X003586Y008356D02*
X003339Y008356D01*
X002709Y008050D02*
X002709Y007988D01*
X002709Y008050D02*
X002647Y008111D01*
X002339Y008111D01*
X002339Y007865D02*
X002524Y007865D01*
X002586Y007926D01*
X002586Y008111D01*
X002462Y007743D02*
X002401Y007743D01*
X002339Y007681D01*
X002339Y007558D01*
X002401Y007496D01*
X002524Y007496D01*
X002586Y007558D01*
X002586Y007681D01*
X002462Y007743D02*
X002462Y007496D01*
X002586Y007374D02*
X002586Y007251D01*
X002586Y007312D02*
X002215Y007312D01*
X002215Y007251D01*
X002215Y007129D02*
X002586Y007129D01*
X002586Y006944D01*
X002524Y006882D01*
X002401Y006882D01*
X002339Y006944D01*
X002339Y007129D01*
X002401Y006761D02*
X002339Y006699D01*
X002339Y006576D01*
X002339Y006392D02*
X002339Y006331D01*
X002462Y006207D01*
X002462Y006086D02*
X002524Y006086D01*
X002586Y006024D01*
X002586Y005839D01*
X002215Y005839D01*
X002215Y006024D01*
X002277Y006086D01*
X002339Y006086D01*
X002401Y006024D01*
X002401Y005839D01*
X002401Y006024D02*
X002462Y006086D01*
X002339Y006207D02*
X002586Y006207D01*
X002524Y006514D02*
X002462Y006576D01*
X002462Y006761D01*
X002401Y006761D02*
X002586Y006761D01*
X002586Y006576D01*
X002524Y006514D01*
X002586Y005349D02*
X002586Y005225D01*
X002586Y005287D02*
X002215Y005287D01*
X002215Y005225D01*
X002215Y005041D02*
X002586Y005041D01*
X002586Y004980D02*
X002586Y005103D01*
X002586Y004858D02*
X002586Y004734D01*
X002586Y004796D02*
X002339Y004796D01*
X002339Y004734D01*
X002215Y004796D02*
X002154Y004796D01*
X002215Y004613D02*
X002586Y004613D01*
X002462Y004489D01*
X002586Y004366D01*
X002215Y004366D01*
X002215Y004980D02*
X002215Y005041D01*
X001709Y005840D02*
X001709Y005901D01*
X001647Y005963D01*
X001339Y005963D01*
X001339Y005716D02*
X001524Y005716D01*
X001586Y005778D01*
X001586Y005963D01*
X001524Y005595D02*
X001462Y005533D01*
X001462Y005410D01*
X001401Y005348D01*
X001339Y005410D01*
X001339Y005595D01*
X001524Y005595D02*
X001586Y005533D01*
X001586Y005348D01*
X001586Y005226D02*
X001586Y005102D01*
X001586Y005164D02*
X001339Y005164D01*
X001339Y005102D01*
X001401Y004981D02*
X001339Y004919D01*
X001339Y004796D01*
X001462Y004796D02*
X001462Y004981D01*
X001401Y004981D02*
X001586Y004981D01*
X001586Y004796D01*
X001524Y004734D01*
X001462Y004796D01*
X001524Y004613D02*
X001277Y004613D01*
X001215Y004551D01*
X001215Y004366D01*
X001586Y004366D01*
X001586Y004551D01*
X001524Y004613D01*
X001215Y005164D02*
X001154Y005164D01*
X001277Y006453D02*
X001215Y006515D01*
X001215Y006638D01*
X001277Y006700D01*
X001215Y006821D02*
X001586Y006821D01*
X001524Y006700D02*
X001586Y006638D01*
X001586Y006515D01*
X001524Y006453D01*
X001277Y006453D01*
X001401Y006821D02*
X001339Y006883D01*
X001339Y007006D01*
X001401Y007068D01*
X001586Y007068D01*
X001524Y007189D02*
X001462Y007251D01*
X001462Y007436D01*
X001401Y007436D02*
X001586Y007436D01*
X001586Y007251D01*
X001524Y007189D01*
X001339Y007375D02*
X001401Y007436D01*
X001339Y007375D02*
X001339Y007251D01*
X001339Y007558D02*
X001339Y007619D01*
X001586Y007619D01*
X001586Y007558D02*
X001586Y007681D01*
X001586Y007803D02*
X001339Y007803D01*
X001339Y007988D01*
X001401Y008050D01*
X001586Y008050D01*
X001524Y008540D02*
X001586Y008602D01*
X001586Y008725D01*
X001524Y008787D01*
X001462Y008787D01*
X001401Y008725D01*
X001401Y008602D01*
X001339Y008540D01*
X001277Y008540D01*
X001215Y008602D01*
X001215Y008725D01*
X001277Y008787D01*
X001215Y008908D02*
X001586Y008908D01*
X001586Y009155D02*
X001401Y009155D01*
X001339Y009093D01*
X001339Y008970D01*
X001401Y008908D01*
X001339Y009276D02*
X001339Y009338D01*
X001586Y009338D01*
X001586Y009276D02*
X001586Y009400D01*
X001586Y009584D02*
X001277Y009584D01*
X001215Y009645D01*
X001277Y009829D02*
X001524Y009829D01*
X001586Y009891D01*
X001401Y009645D02*
X001401Y009522D01*
X001339Y009768D02*
X001339Y009891D01*
X001462Y010381D02*
X001462Y010566D01*
X001401Y010628D01*
X001277Y010628D01*
X001215Y010566D01*
X001215Y010381D01*
X001586Y010381D01*
X001462Y010505D02*
X001586Y010628D01*
X001524Y010750D02*
X001401Y010750D01*
X001339Y010811D01*
X001339Y010935D01*
X001401Y010996D01*
X001462Y010996D01*
X001462Y010750D01*
X001524Y010750D02*
X001586Y010811D01*
X001586Y010935D01*
X001524Y011118D02*
X001586Y011180D01*
X001586Y011365D01*
X001647Y011365D02*
X001709Y011303D01*
X001709Y011241D01*
X001647Y011365D02*
X001339Y011365D01*
X001339Y011180D01*
X001401Y011118D01*
X001524Y011118D01*
X001586Y011486D02*
X001586Y011610D01*
X001586Y011548D02*
X001339Y011548D01*
X001339Y011486D01*
X001401Y011732D02*
X001339Y011793D01*
X001339Y011979D01*
X001339Y012100D02*
X001339Y012224D01*
X001277Y012162D02*
X001524Y012162D01*
X001586Y012224D01*
X001524Y012346D02*
X001586Y012407D01*
X001586Y012531D01*
X001586Y012714D02*
X001339Y012714D01*
X001339Y012837D02*
X001339Y012899D01*
X001339Y012837D02*
X001462Y012714D01*
X001462Y012592D02*
X001462Y012346D01*
X001401Y012346D02*
X001339Y012407D01*
X001339Y012531D01*
X001401Y012592D01*
X001462Y012592D01*
X001524Y012346D02*
X001401Y012346D01*
X001524Y011979D02*
X001462Y011917D01*
X001462Y011793D01*
X001401Y011732D01*
X001586Y011917D02*
X001524Y011979D01*
X001586Y011917D02*
X001586Y011732D01*
X001215Y011548D02*
X001154Y011548D01*
X001215Y013389D02*
X001586Y013389D01*
X001586Y013636D01*
X001586Y013757D02*
X001586Y014004D01*
X001586Y014126D02*
X001586Y014311D01*
X001524Y014373D01*
X001277Y014373D01*
X001215Y014311D01*
X001215Y014126D01*
X001586Y014126D01*
X001401Y013881D02*
X001401Y013757D01*
X001586Y013757D02*
X001215Y013757D01*
X001215Y014004D01*
X001215Y014862D02*
X001339Y014986D01*
X001215Y015109D01*
X001586Y015109D01*
X001524Y015231D02*
X001586Y015292D01*
X001586Y015477D01*
X001401Y015477D01*
X001339Y015416D01*
X001339Y015292D01*
X001462Y015292D02*
X001462Y015477D01*
X001339Y015599D02*
X001339Y015722D01*
X001277Y015661D02*
X001524Y015661D01*
X001586Y015722D01*
X001586Y015844D02*
X001339Y015844D01*
X001462Y015844D02*
X001339Y015968D01*
X001339Y016030D01*
X001339Y016151D02*
X001339Y016213D01*
X001586Y016213D01*
X001586Y016151D02*
X001586Y016275D01*
X001586Y016397D02*
X001339Y016644D01*
X001339Y016397D02*
X001586Y016644D01*
X001401Y017133D02*
X001401Y017380D01*
X001339Y017870D02*
X001277Y017870D01*
X001215Y017932D01*
X001215Y018055D01*
X001277Y018117D01*
X001215Y018238D02*
X001586Y018238D01*
X001524Y018117D02*
X001586Y018055D01*
X001586Y017932D01*
X001524Y017870D01*
X001401Y017932D02*
X001401Y018055D01*
X001462Y018117D01*
X001524Y018117D01*
X001401Y018238D02*
X001339Y018300D01*
X001339Y018424D01*
X001401Y018485D01*
X001586Y018485D01*
X001586Y018607D02*
X001586Y018730D01*
X001586Y018668D02*
X001339Y018668D01*
X001339Y018607D01*
X001401Y018852D02*
X001339Y018914D01*
X001339Y019037D01*
X001401Y019099D01*
X001462Y019099D01*
X001462Y018852D01*
X001401Y018852D02*
X001524Y018852D01*
X001586Y018914D01*
X001586Y019037D01*
X001586Y019221D02*
X001586Y019344D01*
X001586Y019282D02*
X001215Y019282D01*
X001215Y019221D01*
X001401Y019466D02*
X001339Y019528D01*
X001339Y019713D01*
X001401Y019466D02*
X001524Y019466D01*
X001586Y019528D01*
X001586Y019713D01*
X001215Y019713D01*
X001215Y018668D02*
X001154Y018668D01*
X001401Y017932D02*
X001339Y017870D01*
X001215Y016213D02*
X001154Y016213D01*
X001462Y015292D02*
X001524Y015231D01*
X001586Y014862D02*
X001215Y014862D01*
X002215Y012039D02*
X002586Y012039D01*
X002586Y011916D02*
X002586Y012163D01*
X002339Y011794D02*
X002586Y011671D01*
X002339Y011548D01*
X002339Y011916D02*
X002215Y012039D01*
X002277Y009953D02*
X002215Y009891D01*
X002215Y009768D01*
X002277Y009706D01*
X002277Y009953D02*
X002339Y009953D01*
X002586Y009706D01*
X002586Y009953D01*
X002586Y009585D02*
X002586Y009338D01*
X002586Y009461D02*
X002215Y009461D01*
X002339Y009338D01*
X002277Y009216D02*
X002524Y008969D01*
X002586Y009031D01*
X002586Y009155D01*
X002524Y009216D01*
X002277Y009216D01*
X002215Y009155D01*
X002215Y009031D01*
X002277Y008969D01*
X002524Y008969D01*
X002586Y008848D02*
X002586Y008601D01*
X002339Y008848D01*
X002277Y008848D01*
X002215Y008786D01*
X002215Y008663D01*
X002277Y008601D01*
X001215Y009338D02*
X001154Y009338D01*
X001154Y007619D02*
X001215Y007619D01*
X003215Y004366D02*
X003586Y004366D01*
X003401Y005593D02*
X003339Y005593D01*
X003339Y005655D01*
X003401Y005655D01*
X003401Y005593D01*
X004365Y015274D02*
X004736Y015274D01*
X004736Y015521D01*
X004736Y015643D02*
X004489Y015643D01*
X004365Y015766D01*
X004489Y015889D01*
X004736Y015889D01*
X004736Y016134D02*
X004365Y016134D01*
X004365Y016011D02*
X004365Y016258D01*
X004427Y016379D02*
X004674Y016379D01*
X004736Y016441D01*
X004736Y016564D01*
X004674Y016626D01*
X004736Y016747D02*
X004365Y016747D01*
X004427Y016626D02*
X004365Y016564D01*
X004365Y016441D01*
X004427Y016379D01*
X004551Y016747D02*
X004551Y016994D01*
X004736Y016994D02*
X004365Y016994D01*
X004551Y015889D02*
X004551Y015643D01*
X005365Y016073D02*
X005427Y016011D01*
X005674Y016011D01*
X005736Y016073D01*
X005736Y016196D01*
X005674Y016258D01*
X005736Y016379D02*
X005736Y016626D01*
X005736Y016747D02*
X005365Y016747D01*
X005612Y016747D02*
X005365Y016994D01*
X005551Y016809D02*
X005736Y016994D01*
X005736Y016379D02*
X005365Y016379D01*
X005427Y016258D02*
X005365Y016196D01*
X005365Y016073D01*
X006365Y016379D02*
X006551Y016379D01*
X006489Y016503D01*
X006489Y016564D01*
X006551Y016626D01*
X006674Y016626D01*
X006736Y016564D01*
X006736Y016441D01*
X006674Y016379D01*
X006489Y016747D02*
X006736Y016871D01*
X006489Y016994D01*
X006365Y016626D02*
X006365Y016379D01*
X006559Y019716D02*
X006497Y019777D01*
X006559Y019716D02*
X006683Y019716D01*
X006744Y019777D01*
X006744Y019901D01*
X006683Y019963D01*
X006621Y019963D01*
X006497Y019901D01*
X006497Y020086D01*
X006744Y020086D01*
X005744Y020086D02*
X005621Y020024D01*
X005497Y019901D01*
X005683Y019901D01*
X005744Y019839D01*
X005744Y019777D01*
X005683Y019716D01*
X005559Y019716D01*
X005497Y019777D01*
X005497Y019901D01*
X004744Y020024D02*
X004497Y019777D01*
X004497Y019716D01*
X004497Y020086D02*
X004744Y020086D01*
X004744Y020024D01*
X003674Y016994D02*
X003427Y016994D01*
X003365Y016933D01*
X003365Y016747D01*
X003736Y016747D01*
X003736Y016933D01*
X003674Y016994D01*
X003736Y016626D02*
X003365Y016626D01*
X003365Y016379D02*
X003736Y016626D01*
X003736Y016379D02*
X003365Y016379D01*
X003427Y016258D02*
X003365Y016196D01*
X003365Y016073D01*
X003427Y016011D01*
X003674Y016011D01*
X003736Y016073D01*
X003736Y016196D01*
X003674Y016258D01*
X003551Y016258D01*
X003551Y016134D01*
X002736Y016011D02*
X002489Y016011D01*
X002365Y016134D01*
X002489Y016258D01*
X002736Y016258D01*
X002736Y016503D02*
X002365Y016503D01*
X002365Y016626D02*
X002365Y016379D01*
X002489Y016747D02*
X002365Y016871D01*
X002489Y016994D01*
X002736Y016994D01*
X002736Y016747D02*
X002489Y016747D01*
X002551Y016747D02*
X002551Y016994D01*
X002551Y016258D02*
X002551Y016011D01*
X002674Y015889D02*
X002427Y015889D01*
X002365Y015828D01*
X002365Y015643D01*
X002736Y015643D01*
X002736Y015828D01*
X002674Y015889D01*
D12*
X002101Y017851D02*
X002101Y018351D01*
X007101Y018351D02*
X007101Y017851D01*
D13*
X007230Y017785D02*
X007155Y017710D01*
X007155Y017485D01*
X007606Y017485D01*
X007531Y017250D02*
X007155Y017250D01*
X007155Y017175D02*
X007155Y017325D01*
X007230Y017785D02*
X007381Y017785D01*
X007456Y017710D01*
X007456Y017485D01*
X007531Y017250D02*
X007606Y017175D01*
X007606Y017100D01*
X007531Y017025D01*
X007606Y017945D02*
X007606Y018246D01*
X007606Y018095D02*
X007155Y018095D01*
X007306Y017945D01*
M02*
