M48
INCH
T17C0.030
T18C0.028
T19C0.038
%
T18
X032250Y004250
X032250Y003250
X022250Y004250
X022250Y003250
X052250Y004250
X052250Y003250
X042250Y004250
X042250Y003250
X062250Y004250
X062250Y003250
X082250Y004250
X082250Y003250
X072250Y004250
X072250Y003250
X012250Y004250
X012250Y003250
X009250Y006500
X008250Y006500
X008250Y003500
X009250Y003500
X007250Y006500
X006250Y006500
X005250Y006500
X004250Y006500
X003250Y006500
X002250Y006500
X002250Y003500
X003250Y003500
X004250Y003500
X005250Y003500
X006250Y003500
X007250Y003500
T17
X019250Y006250
X029250Y006750
X032250Y006750
X022250Y006250
X072250Y007250
X079250Y007250
X082250Y007250
X069250Y007250
X059250Y007250
X062250Y007250
X049250Y007250
X039250Y007250
X042250Y007250
X052250Y007250
X011250Y005750
X014250Y005750
T19
X002000Y008500
X003000Y008500
X004000Y008500
X005000Y008500
X006000Y008500
X002000Y001500
X003000Y001500
X004000Y001500
X005000Y001500
X006000Y001500
M30
