G04 start of page 8 for group 7 idx 7 *
G04 Title: (unknown), silk *
G04 Creator: pcb 20091103 *
G04 CreationDate: Thu 26 Jan 2012 07:11:29 AM GMT UTC *
G04 For: will *
G04 Format: Gerber/RS-274X *
G04 PCB-Dimensions: 850000 100000 *
G04 PCB-Coordinate-Origin: lower left *
%MOIN*%
%FSLAX25Y25*%
%LNBACK*%
%ADD11C,0.0200*%
%ADD14C,0.0550*%
%ADD15C,0.0700*%
%ADD16C,0.0600*%
%ADD17C,0.0300*%
%ADD18C,0.0280*%
%ADD19C,0.0380*%
G54D11*G36*
X189750Y65250D02*Y59750D01*
X195250D01*
Y65250D01*
X189750D01*
G37*
G36*
X289750Y70250D02*Y64750D01*
X295250D01*
Y70250D01*
X289750D01*
G37*
G54D14*X322500Y67500D03*
G54D11*G36*
X319000Y46000D02*Y39000D01*
X326000D01*
Y46000D01*
X319000D01*
G37*
G54D15*X322500Y32500D03*
G54D14*X222500Y62500D03*
G54D11*G36*
X219000Y46000D02*Y39000D01*
X226000D01*
Y46000D01*
X219000D01*
G37*
G54D15*X222500Y32500D03*
G54D11*G36*
X519000Y46000D02*Y39000D01*
X526000D01*
Y46000D01*
X519000D01*
G37*
G54D15*X522500Y32500D03*
G54D11*G36*
X419000Y46000D02*Y39000D01*
X426000D01*
Y46000D01*
X419000D01*
G37*
G54D15*X422500Y32500D03*
G54D11*G36*
X619000Y46000D02*Y39000D01*
X626000D01*
Y46000D01*
X619000D01*
G37*
G54D15*X622500Y32500D03*
G54D14*X722500Y72500D03*
G54D11*G36*
X789750Y75250D02*Y69750D01*
X795250D01*
Y75250D01*
X789750D01*
G37*
G54D14*X822500Y72500D03*
G54D11*G36*
X689750Y75250D02*Y69750D01*
X695250D01*
Y75250D01*
X689750D01*
G37*
G36*
X589750D02*Y69750D01*
X595250D01*
Y75250D01*
X589750D01*
G37*
G54D14*X622500Y72500D03*
G54D11*G36*
X489750Y75250D02*Y69750D01*
X495250D01*
Y75250D01*
X489750D01*
G37*
G36*
X389750D02*Y69750D01*
X395250D01*
Y75250D01*
X389750D01*
G37*
G54D14*X422500Y72500D03*
X522500D03*
G54D11*G36*
X819000Y46000D02*Y39000D01*
X826000D01*
Y46000D01*
X819000D01*
G37*
G54D15*X822500Y32500D03*
G54D11*G36*
X719000Y46000D02*Y39000D01*
X726000D01*
Y46000D01*
X719000D01*
G37*
G54D15*X722500Y32500D03*
G54D11*G36*
X119000Y46000D02*Y39000D01*
X126000D01*
Y46000D01*
X119000D01*
G37*
G54D15*X122500Y32500D03*
G54D11*G36*
X109750Y60250D02*Y54750D01*
X115250D01*
Y60250D01*
X109750D01*
G37*
G36*
X89500Y68000D02*Y62000D01*
X95500D01*
Y68000D01*
X89500D01*
G37*
G54D16*X82500Y65000D03*
G54D14*X142500Y57500D03*
G54D16*X82500Y35000D03*
X92500D03*
G54D11*G36*
X17000Y88000D02*Y82000D01*
X23000D01*
Y88000D01*
X17000D01*
G37*
G54D16*X30000Y85000D03*
X40000D03*
X50000D03*
X60000D03*
X72500Y65000D03*
X62500D03*
X52500D03*
X42500D03*
X32500D03*
X22500D03*
Y35000D03*
X32500D03*
X42500D03*
X52500D03*
X62500D03*
X72500D03*
G54D11*G36*
X17000Y18000D02*Y12000D01*
X23000D01*
Y18000D01*
X17000D01*
G37*
G54D16*X30000Y15000D03*
X40000D03*
X50000D03*
X60000D03*
G54D17*G54D18*G54D17*G54D18*G54D17*G54D18*G54D17*G54D18*G54D17*G54D18*G54D19*G54D18*G54D19*M02*
