G04 start of page 12 for group -4079 idx -4079 *
G04 Title: (unknown), topsilk *
G04 Creator: pcb 20091103 *
G04 CreationDate: Thu 26 Jan 2012 07:11:29 AM GMT UTC *
G04 For: will *
G04 Format: Gerber/RS-274X *
G04 PCB-Dimensions: 850000 100000 *
G04 PCB-Coordinate-Origin: lower left *
%MOIN*%
%FSLAX25Y25*%
%LNFRONTSILK*%
%ADD12C,0.0100*%
G54D12*X0Y100000D02*Y0D01*
X850000D01*
Y100000D01*
X0D01*
X220500Y19000D02*Y15000D01*
X222000Y19000D02*X222500Y18500D01*
Y15500D01*
X222000Y15000D02*X222500Y15500D01*
X220000Y15000D02*X222000D01*
X220000Y19000D02*X222000D01*
X225201Y17000D02*X225701Y16500D01*
X224201Y17000D02*X225201D01*
X223701Y16500D02*X224201Y17000D01*
X223701Y16500D02*Y15500D01*
X224201Y15000D01*
X225701Y17000D02*Y15500D01*
X226201Y15000D01*
X224201D02*X225201D01*
X225701Y15500D01*
X227402Y18000D02*Y17500D01*
Y16500D02*Y15000D01*
X228903D02*X230403D01*
X230903Y15500D01*
X230403Y16000D02*X230903Y15500D01*
X228903Y16000D02*X230403D01*
X228403Y16500D02*X228903Y16000D01*
X228403Y16500D02*X228903Y17000D01*
X230403D01*
X230903Y16500D01*
X228403Y15500D02*X228903Y15000D01*
X232104Y17000D02*Y15500D01*
X232604Y15000D01*
X234104Y17000D02*Y14000D01*
X233604Y13500D02*X234104Y14000D01*
X232604Y13500D02*X233604D01*
X232104Y14000D02*X232604Y13500D01*
Y15000D02*X233604D01*
X234104Y15500D01*
X237605Y15000D02*X239105D01*
X237105Y15500D02*X237605Y15000D01*
X237105Y18500D02*Y15500D01*
Y18500D02*X237605Y19000D01*
X239105D01*
X240306D02*Y15000D01*
Y16500D02*X240806Y17000D01*
X241806D01*
X242306Y16500D01*
Y15000D01*
X245007Y17000D02*X245507Y16500D01*
X244007Y17000D02*X245007D01*
X243507Y16500D02*X244007Y17000D01*
X243507Y16500D02*Y15500D01*
X244007Y15000D01*
X245507Y17000D02*Y15500D01*
X246007Y15000D01*
X244007D02*X245007D01*
X245507Y15500D01*
X247208Y18000D02*Y17500D01*
Y16500D02*Y15000D01*
X248709Y16500D02*Y15000D01*
Y16500D02*X249209Y17000D01*
X249709D01*
X250209Y16500D01*
Y15000D01*
X248209Y17000D02*X248709Y16500D01*
X255210Y19000D02*X255710Y18500D01*
X253710Y19000D02*X255210D01*
X253210Y18500D02*X253710Y19000D01*
X253210Y18500D02*Y17500D01*
X253710Y17000D01*
X255210D01*
X255710Y16500D01*
Y15500D01*
X255210Y15000D02*X255710Y15500D01*
X253710Y15000D02*X255210D01*
X253210Y15500D02*X253710Y15000D01*
X256911Y19000D02*Y15000D01*
Y16500D02*X257411Y17000D01*
X258411D01*
X258911Y16500D01*
Y15000D01*
X260112Y18000D02*Y17500D01*
Y16500D02*Y15000D01*
X261613Y18500D02*Y15000D01*
Y18500D02*X262113Y19000D01*
X262613D01*
X261113Y17000D02*X262113D01*
X264114Y19000D02*Y15500D01*
X264614Y15000D01*
X263614Y17500D02*X264614D01*
X267415Y19000D02*X269415D01*
X269915Y18500D01*
Y17500D01*
X269415Y17000D02*X269915Y17500D01*
X267915Y17000D02*X269415D01*
X267915Y19000D02*Y15000D01*
Y17000D02*X269915Y15000D01*
X271616D02*X273116D01*
X271116Y15500D02*X271616Y15000D01*
X271116Y16500D02*Y15500D01*
Y16500D02*X271616Y17000D01*
X272616D01*
X273116Y16500D01*
X271116Y16000D02*X273116D01*
Y16500D02*Y16000D01*
X275817Y17000D02*X276317Y16500D01*
X274817Y17000D02*X275817D01*
X274317Y16500D02*X274817Y17000D01*
X274317Y16500D02*Y15500D01*
X274817Y15000D01*
X275817D01*
X276317Y15500D01*
X274317Y14000D02*X274817Y13500D01*
X275817D01*
X276317Y14000D01*
Y17000D02*Y14000D01*
X277518Y18000D02*Y17500D01*
Y16500D02*Y15000D01*
X279019D02*X280519D01*
X281019Y15500D01*
X280519Y16000D02*X281019Y15500D01*
X279019Y16000D02*X280519D01*
X278519Y16500D02*X279019Y16000D01*
X278519Y16500D02*X279019Y17000D01*
X280519D01*
X281019Y16500D01*
X278519Y15500D02*X279019Y15000D01*
X282720Y19000D02*Y15500D01*
X283220Y15000D01*
X282220Y17500D02*X283220D01*
X284721Y15000D02*X286221D01*
X284221Y15500D02*X284721Y15000D01*
X284221Y16500D02*Y15500D01*
Y16500D02*X284721Y17000D01*
X285721D01*
X286221Y16500D01*
X284221Y16000D02*X286221D01*
Y16500D02*Y16000D01*
X287922Y16500D02*Y15000D01*
Y16500D02*X288422Y17000D01*
X289422D01*
X287422D02*X287922Y16500D01*
X292423Y19000D02*Y15000D01*
X294423D01*
X295624Y17000D02*X297124D01*
X295624Y15000D02*X297624D01*
X295624Y19000D02*Y15000D01*
Y19000D02*X297624D01*
X299325D02*Y15000D01*
X300825Y19000D02*X301325Y18500D01*
Y15500D01*
X300825Y15000D02*X301325Y15500D01*
X298825Y15000D02*X300825D01*
X298825Y19000D02*X300825D01*
X304326D02*Y15000D01*
Y19000D02*X305826Y17500D01*
X307326Y19000D01*
Y15000D01*
X310027Y17000D02*X310527Y16500D01*
X309027Y17000D02*X310027D01*
X308527Y16500D02*X309027Y17000D01*
X308527Y16500D02*Y15500D01*
X309027Y15000D01*
X310527Y17000D02*Y15500D01*
X311027Y15000D01*
X309027D02*X310027D01*
X310527Y15500D01*
X312728Y19000D02*Y15500D01*
X313228Y15000D01*
X312228Y17500D02*X313228D01*
X314729Y16500D02*Y15000D01*
Y16500D02*X315229Y17000D01*
X316229D01*
X314229D02*X314729Y16500D01*
X317430Y18000D02*Y17500D01*
Y16500D02*Y15000D01*
X318431Y17000D02*X320431Y15000D01*
X318431D02*X320431Y17000D01*
X323432D02*X325432D01*
X328433Y19000D02*Y15000D01*
Y19000D02*X329933Y17500D01*
X331433Y19000D01*
Y15000D01*
X332634Y16500D02*Y15500D01*
Y16500D02*X333134Y17000D01*
X334134D01*
X334634Y16500D01*
Y15500D01*
X334134Y15000D02*X334634Y15500D01*
X333134Y15000D02*X334134D01*
X332634Y15500D02*X333134Y15000D01*
X337835Y19000D02*Y15000D01*
X337335D02*X337835Y15500D01*
X336335Y15000D02*X337335D01*
X335835Y15500D02*X336335Y15000D01*
X335835Y16500D02*Y15500D01*
Y16500D02*X336335Y17000D01*
X337335D01*
X337835Y16500D01*
X339036Y17000D02*Y15500D01*
X339536Y15000D01*
X340536D01*
X341036Y15500D01*
Y17000D02*Y15500D01*
X342237Y19000D02*Y15500D01*
X342737Y15000D01*
X344238D02*X345738D01*
X343738Y15500D02*X344238Y15000D01*
X343738Y16500D02*Y15500D01*
Y16500D02*X344238Y17000D01*
X345238D01*
X345738Y16500D01*
X343738Y16000D02*X345738D01*
Y16500D02*Y16000D01*
X361339Y19000D02*Y15000D01*
X362839Y16500D01*
X364339Y15000D01*
Y19000D02*Y15000D01*
X365540Y18000D02*Y17500D01*
Y16500D02*Y15000D01*
X366541Y19000D02*Y15500D01*
X367041Y15000D01*
X368042Y19000D02*Y15500D01*
X368542Y15000D01*
X371343D02*X373343D01*
X373843Y15500D01*
Y16500D02*Y15500D01*
X373343Y17000D02*X373843Y16500D01*
X371843Y17000D02*X373343D01*
X371843Y19000D02*Y15000D01*
X371343Y19000D02*X373343D01*
X373843Y18500D01*
Y17500D01*
X373343Y17000D02*X373843Y17500D01*
X375544Y16500D02*Y15000D01*
Y16500D02*X376044Y17000D01*
X377044D01*
X375044D02*X375544Y16500D01*
X379745Y17000D02*X380245Y16500D01*
X378745Y17000D02*X379745D01*
X378245Y16500D02*X378745Y17000D01*
X378245Y16500D02*Y15500D01*
X378745Y15000D01*
X380245Y17000D02*Y15500D01*
X380745Y15000D01*
X378745D02*X379745D01*
X380245Y15500D01*
X383946Y19000D02*Y15000D01*
X383446D02*X383946Y15500D01*
X382446Y15000D02*X383446D01*
X381946Y15500D02*X382446Y15000D01*
X381946Y16500D02*Y15500D01*
Y16500D02*X382446Y17000D01*
X383446D01*
X383946Y16500D01*
X385147Y19000D02*Y15500D01*
X385647Y15000D01*
X387148D02*X388648D01*
X386648Y15500D02*X387148Y15000D01*
X386648Y16500D02*Y15500D01*
Y16500D02*X387148Y17000D01*
X388148D01*
X388648Y16500D01*
X386648Y16000D02*X388648D01*
Y16500D02*Y16000D01*
X389849Y17000D02*Y15500D01*
X390349Y15000D01*
X391849Y17000D02*Y14000D01*
X391349Y13500D02*X391849Y14000D01*
X390349Y13500D02*X391349D01*
X389849Y14000D02*X390349Y13500D01*
Y15000D02*X391349D01*
X391849Y15500D01*
X394850Y18500D02*X395350Y19000D01*
X396850D01*
X397350Y18500D01*
Y17500D01*
X394850Y15000D02*X397350Y17500D01*
X394850Y15000D02*X397350D01*
X398551Y15500D02*X399051Y15000D01*
X398551Y18500D02*Y15500D01*
Y18500D02*X399051Y19000D01*
X400051D01*
X400551Y18500D01*
Y15500D01*
X400051Y15000D02*X400551Y15500D01*
X399051Y15000D02*X400051D01*
X398551Y16000D02*X400551Y18000D01*
X402252Y15000D02*X403252D01*
X402752Y19000D02*Y15000D01*
X401752Y18000D02*X402752Y19000D01*
X404453Y18500D02*X404953Y19000D01*
X406453D01*
X406953Y18500D01*
Y17500D01*
X404453Y15000D02*X406953Y17500D01*
X404453Y15000D02*X406953D01*
X422554Y17000D02*Y16000D01*
X423554Y15000D01*
X424554Y16000D01*
Y17000D02*Y16000D01*
X425755Y18500D02*X426255Y19000D01*
X427255D01*
X427755Y18500D01*
Y15500D01*
X427255Y15000D02*X427755Y15500D01*
X426255Y15000D02*X427255D01*
X425755Y15500D02*X426255Y15000D01*
Y17000D02*X427755D01*
X443356Y19000D02*Y15000D01*
Y16500D02*X443856Y17000D01*
X444856D01*
X445356Y16500D01*
Y15000D01*
X447057Y19000D02*Y15500D01*
X447557Y15000D01*
X446557Y17500D02*X447557D01*
X449058Y19000D02*Y15500D01*
X449558Y15000D01*
X448558Y17500D02*X449558D01*
X451059Y16500D02*Y13500D01*
X450559Y17000D02*X451059Y16500D01*
X451559Y17000D01*
X452559D01*
X453059Y16500D01*
Y15500D01*
X452559Y15000D02*X453059Y15500D01*
X451559Y15000D02*X452559D01*
X451059Y15500D02*X451559Y15000D01*
X454260Y17500D02*X454760D01*
X454260Y16500D02*X454760D01*
X455961Y15500D02*X458961Y18500D01*
X460162Y15500D02*X463162Y18500D01*
X464363Y17000D02*X466363D01*
X464363Y15000D02*X466363Y17000D01*
X464363Y15000D02*X466363D01*
X467564Y17000D02*Y15500D01*
X468064Y15000D01*
X469564Y17000D02*Y14000D01*
X469064Y13500D02*X469564Y14000D01*
X468064Y13500D02*X469064D01*
X467564Y14000D02*X468064Y13500D01*
Y15000D02*X469064D01*
X469564Y15500D01*
X471265Y16500D02*Y13500D01*
X470765Y17000D02*X471265Y16500D01*
X471765Y17000D01*
X472765D01*
X473265Y16500D01*
Y15500D01*
X472765Y15000D02*X473265Y15500D01*
X471765Y15000D02*X472765D01*
X471265Y15500D02*X471765Y15000D01*
X474466Y19000D02*Y15000D01*
Y16500D02*X474966Y17000D01*
X475966D01*
X476466Y16500D01*
Y15000D01*
X477667Y16500D02*Y15500D01*
Y16500D02*X478167Y17000D01*
X479167D01*
X479667Y16500D01*
Y15500D01*
X479167Y15000D02*X479667Y15500D01*
X478167Y15000D02*X479167D01*
X477667Y15500D02*X478167Y15000D01*
X481368Y16500D02*Y15000D01*
Y16500D02*X481868Y17000D01*
X482368D01*
X482868Y16500D01*
Y15000D01*
X480868Y17000D02*X481368Y16500D01*
X484069Y15000D02*X484569D01*
X486270Y17000D02*X487770D01*
X485770Y16500D02*X486270Y17000D01*
X485770Y16500D02*Y15500D01*
X486270Y15000D01*
X487770D01*
X488971Y16500D02*Y15500D01*
Y16500D02*X489471Y17000D01*
X490471D01*
X490971Y16500D01*
Y15500D01*
X490471Y15000D02*X490971Y15500D01*
X489471Y15000D02*X490471D01*
X488971Y15500D02*X489471Y15000D01*
X492672Y16500D02*Y15000D01*
Y16500D02*X493172Y17000D01*
X493672D01*
X494172Y16500D01*
Y15000D01*
Y16500D02*X494672Y17000D01*
X495172D01*
X495672Y16500D01*
Y15000D01*
X492172Y17000D02*X492672Y16500D01*
X496873Y15500D02*X499873Y18500D01*
X503074Y19000D02*Y15000D01*
X502574D02*X503074Y15500D01*
X501574Y15000D02*X502574D01*
X501074Y15500D02*X501574Y15000D01*
X501074Y16500D02*Y15500D01*
Y16500D02*X501574Y17000D01*
X502574D01*
X503074Y16500D01*
X505775Y17000D02*X506275Y16500D01*
X504775Y17000D02*X505775D01*
X504275Y16500D02*X504775Y17000D01*
X504275Y16500D02*Y15500D01*
X504775Y15000D01*
X506275Y17000D02*Y15500D01*
X506775Y15000D01*
X504775D02*X505775D01*
X506275Y15500D01*
X507976Y18000D02*Y17500D01*
Y16500D02*Y15000D01*
X509477D02*X510977D01*
X511477Y15500D01*
X510977Y16000D02*X511477Y15500D01*
X509477Y16000D02*X510977D01*
X508977Y16500D02*X509477Y16000D01*
X508977Y16500D02*X509477Y17000D01*
X510977D01*
X511477Y16500D01*
X508977Y15500D02*X509477Y15000D01*
X512678Y17000D02*Y15500D01*
X513178Y15000D01*
X514678Y17000D02*Y14000D01*
X514178Y13500D02*X514678Y14000D01*
X513178Y13500D02*X514178D01*
X512678Y14000D02*X513178Y13500D01*
Y15000D02*X514178D01*
X514678Y15500D01*
X516379Y15000D02*X517879D01*
X518379Y15500D01*
X517879Y16000D02*X518379Y15500D01*
X516379Y16000D02*X517879D01*
X515879Y16500D02*X516379Y16000D01*
X515879Y16500D02*X516379Y17000D01*
X517879D01*
X518379Y16500D01*
X515879Y15500D02*X516379Y15000D01*
X519580Y19000D02*Y15000D01*
Y16500D02*X520080Y17000D01*
X521080D01*
X521580Y16500D01*
Y15000D01*
X522781Y18000D02*Y17500D01*
Y16500D02*Y15000D01*
X524282Y18500D02*Y15000D01*
Y18500D02*X524782Y19000D01*
X525282D01*
X523782Y17000D02*X524782D01*
X526783Y19000D02*Y15500D01*
X527283Y15000D01*
X526283Y17500D02*X527283D01*
X17500Y9000D02*X19500D01*
X17500D02*Y7000D01*
X18000Y7500D01*
X19000D01*
X19500Y7000D01*
Y5500D01*
X19000Y5000D02*X19500Y5500D01*
X18000Y5000D02*X19000D01*
X17500Y5500D02*X18000Y5000D01*
X20701Y7000D02*Y6000D01*
X21701Y5000D01*
X22701Y6000D01*
Y7000D02*Y6000D01*
X28000Y7000D02*X29500D01*
X27500Y6500D02*X28000Y7000D01*
X27500Y6500D02*Y5500D01*
X28000Y5000D01*
X29500D01*
X30701Y9000D02*Y5500D01*
X31201Y5000D01*
X32202Y9000D02*Y5000D01*
Y6500D02*X33702Y5000D01*
X32202Y6500D02*X33202Y7500D01*
X37500Y9000D02*Y5500D01*
X38000Y5000D01*
X39501Y9000D02*Y5500D01*
X40001Y5000D01*
X39001Y7500D02*X40001D01*
X41502Y7000D02*X43002D01*
X41002Y6500D02*X41502Y7000D01*
X41002Y6500D02*Y5500D01*
X41502Y5000D01*
X43002D01*
X49000Y7000D02*X49500Y6500D01*
X48000Y7000D02*X49000D01*
X47500Y6500D02*X48000Y7000D01*
X47500Y6500D02*Y5500D01*
X48000Y5000D01*
X49000D01*
X49500Y5500D01*
X47500Y4000D02*X48000Y3500D01*
X49000D01*
X49500Y4000D01*
Y7000D02*Y4000D01*
X51201Y6500D02*Y5000D01*
Y6500D02*X51701Y7000D01*
X52201D01*
X52701Y6500D01*
Y5000D01*
X50701Y7000D02*X51201Y6500D01*
X55902Y9000D02*Y5000D01*
X55402D02*X55902Y5500D01*
X54402Y5000D02*X55402D01*
X53902Y5500D02*X54402Y5000D01*
X53902Y6500D02*Y5500D01*
Y6500D02*X54402Y7000D01*
X55402D01*
X55902Y6500D01*
X62000Y9000D02*Y5000D01*
X61500D02*X62000Y5500D01*
X60500Y5000D02*X61500D01*
X60000Y5500D02*X60500Y5000D01*
X60000Y6500D02*Y5500D01*
Y6500D02*X60500Y7000D01*
X61500D01*
X62000Y6500D01*
X64701Y7000D02*X65201Y6500D01*
X63701Y7000D02*X64701D01*
X63201Y6500D02*X63701Y7000D01*
X63201Y6500D02*Y5500D01*
X63701Y5000D01*
X65201Y7000D02*Y5500D01*
X65701Y5000D01*
X63701D02*X64701D01*
X65201Y5500D01*
X67402Y9000D02*Y5500D01*
X67902Y5000D01*
X66902Y7500D02*X67902D01*
X514200Y30000D02*X515100Y29100D01*
X530600Y30000D02*X529600Y29000D01*
X529700D02*X515200D01*
X530602Y29998D02*G75*G03X514197Y29997I-8202J8202D01*G01*
X414200Y30000D02*X415100Y29100D01*
X430600Y30000D02*X429600Y29000D01*
X429700D02*X415200D01*
X430602Y29998D02*G75*G03X414197Y29997I-8202J8202D01*G01*
X500000Y70000D02*Y75000D01*
X515000Y70000D02*X500000D01*
X515000Y75000D02*Y70000D01*
X500000Y75000D02*X515000D01*
Y72500D02*X522500D01*
X492500D02*X500000D01*
X814200Y30000D02*X815100Y29100D01*
X830600Y30000D02*X829600Y29000D01*
X829700D02*X815200D01*
X830602Y29998D02*G75*G03X814197Y29997I-8202J8202D01*G01*
X800000Y70000D02*Y75000D01*
X815000Y70000D02*X800000D01*
X815000Y75000D02*Y70000D01*
X800000Y75000D02*X815000D01*
Y72500D02*X822500D01*
X792500D02*X800000D01*
X700000Y70000D02*Y75000D01*
X715000Y70000D02*X700000D01*
X715000Y75000D02*Y70000D01*
X700000Y75000D02*X715000D01*
Y72500D02*X722500D01*
X692500D02*X700000D01*
X600000Y70000D02*Y75000D01*
X615000Y70000D02*X600000D01*
X615000Y75000D02*Y70000D01*
X600000Y75000D02*X615000D01*
Y72500D02*X622500D01*
X592500D02*X600000D01*
X714200Y30000D02*X715100Y29100D01*
X730600Y30000D02*X729600Y29000D01*
X729700D02*X715200D01*
X730602Y29998D02*G75*G03X714197Y29997I-8202J8202D01*G01*
X614200Y30000D02*X615100Y29100D01*
X630600Y30000D02*X629600Y29000D01*
X629700D02*X615200D01*
X630602Y29998D02*G75*G03X614197Y29997I-8202J8202D01*G01*
X400000Y70000D02*Y75000D01*
X415000Y70000D02*X400000D01*
X415000Y75000D02*Y70000D01*
X400000Y75000D02*X415000D01*
Y72500D02*X422500D01*
X392500D02*X400000D01*
X114200Y30000D02*X115100Y29100D01*
X130600Y30000D02*X129600Y29000D01*
X129700D02*X115200D01*
X130602Y29998D02*G75*G03X114197Y29997I-8202J8202D01*G01*
X15000Y90000D02*X25000D01*
Y80000D01*
X15000Y90000D02*Y80000D01*
Y90000D02*X65000D01*
Y80000D01*
X15000D02*X65000D01*
X97500Y45000D02*Y30000D01*
Y70000D02*Y55000D01*
X17500Y30000D02*X97500D01*
X17500Y70000D02*Y30000D01*
Y70000D02*X97500D01*
Y55000D02*G75*G03X97500Y45000I0J-5000D01*G01*
X120000Y55000D02*Y60000D01*
X135000Y55000D02*X120000D01*
X135000Y60000D02*Y55000D01*
X120000Y60000D02*X135000D01*
Y57500D02*X142500D01*
X112500D02*X120000D01*
X200000Y60000D02*Y65000D01*
X215000Y60000D02*X200000D01*
X215000Y65000D02*Y60000D01*
X200000Y65000D02*X215000D01*
Y62500D02*X222500D01*
X192500D02*X200000D01*
X300000Y65000D02*Y70000D01*
X315000Y65000D02*X300000D01*
X315000Y70000D02*Y65000D01*
X300000Y70000D02*X315000D01*
Y67500D02*X322500D01*
X292500D02*X300000D01*
X214200Y30000D02*X215100Y29100D01*
X230600Y30000D02*X229600Y29000D01*
X229700D02*X215200D01*
X230602Y29998D02*G75*G03X214197Y29997I-8202J8202D01*G01*
X314200Y30000D02*X315100Y29100D01*
X330600Y30000D02*X329600Y29000D01*
X329700D02*X315200D01*
X330602Y29998D02*G75*G03X314197Y29997I-8202J8202D01*G01*
X15000Y20000D02*X25000D01*
Y10000D01*
X15000Y20000D02*Y10000D01*
Y20000D02*X65000D01*
Y10000D01*
X15000D02*X65000D01*
X529000Y52900D02*Y48900D01*
X530500Y52900D02*X531000Y52400D01*
Y49400D01*
X530500Y48900D02*X531000Y49400D01*
X528500Y48900D02*X530500D01*
X528500Y52900D02*X530500D01*
X532201D02*X534201D01*
X532201D02*Y50900D01*
X532701Y51400D01*
X533701D01*
X534201Y50900D01*
Y49400D01*
X533701Y48900D02*X534201Y49400D01*
X532701Y48900D02*X533701D01*
X532201Y49400D02*X532701Y48900D01*
X429000Y52900D02*Y48900D01*
X430500Y52900D02*X431000Y52400D01*
Y49400D01*
X430500Y48900D02*X431000Y49400D01*
X428500Y48900D02*X430500D01*
X428500Y52900D02*X430500D01*
X432201Y50900D02*X434201Y52900D01*
X432201Y50900D02*X434701D01*
X434201Y52900D02*Y48900D01*
X517000Y67000D02*X519000D01*
X519500Y66500D01*
Y65500D01*
X519000Y65000D02*X519500Y65500D01*
X517500Y65000D02*X519000D01*
X517500Y67000D02*Y63000D01*
Y65000D02*X519500Y63000D01*
X520701Y67000D02*X522701D01*
X520701D02*Y65000D01*
X521201Y65500D01*
X522201D01*
X522701Y65000D01*
Y63500D01*
X522201Y63000D02*X522701Y63500D01*
X521201Y63000D02*X522201D01*
X520701Y63500D02*X521201Y63000D01*
X829000Y52900D02*Y48900D01*
X830500Y52900D02*X831000Y52400D01*
Y49400D01*
X830500Y48900D02*X831000Y49400D01*
X828500Y48900D02*X830500D01*
X828500Y52900D02*X830500D01*
X832201Y49400D02*X832701Y48900D01*
X832201Y50400D02*Y49400D01*
Y50400D02*X832701Y50900D01*
X833701D01*
X834201Y50400D01*
Y49400D01*
X833701Y48900D02*X834201Y49400D01*
X832701Y48900D02*X833701D01*
X832201Y51400D02*X832701Y50900D01*
X832201Y52400D02*Y51400D01*
Y52400D02*X832701Y52900D01*
X833701D01*
X834201Y52400D01*
Y51400D01*
X833701Y50900D02*X834201Y51400D01*
X817000Y67000D02*X819000D01*
X819500Y66500D01*
Y65500D01*
X819000Y65000D02*X819500Y65500D01*
X817500Y65000D02*X819000D01*
X817500Y67000D02*Y63000D01*
Y65000D02*X819500Y63000D01*
X820701Y63500D02*X821201Y63000D01*
X820701Y64500D02*Y63500D01*
Y64500D02*X821201Y65000D01*
X822201D01*
X822701Y64500D01*
Y63500D01*
X822201Y63000D02*X822701Y63500D01*
X821201Y63000D02*X822201D01*
X820701Y65500D02*X821201Y65000D01*
X820701Y66500D02*Y65500D01*
Y66500D02*X821201Y67000D01*
X822201D01*
X822701Y66500D01*
Y65500D01*
X822201Y65000D02*X822701Y65500D01*
X717000Y67000D02*X719000D01*
X719500Y66500D01*
Y65500D01*
X719000Y65000D02*X719500Y65500D01*
X717500Y65000D02*X719000D01*
X717500Y67000D02*Y63000D01*
Y65000D02*X719500Y63000D01*
X720701D02*X723201Y65500D01*
Y67000D02*Y65500D01*
X720701Y67000D02*X723201D01*
X617000D02*X619000D01*
X619500Y66500D01*
Y65500D01*
X619000Y65000D02*X619500Y65500D01*
X617500Y65000D02*X619000D01*
X617500Y67000D02*Y63000D01*
Y65000D02*X619500Y63000D01*
X622201Y67000D02*X622701Y66500D01*
X621201Y67000D02*X622201D01*
X620701Y66500D02*X621201Y67000D01*
X620701Y66500D02*Y63500D01*
X621201Y63000D01*
X622201Y65000D02*X622701Y64500D01*
X620701Y65000D02*X622201D01*
X621201Y63000D02*X622201D01*
X622701Y63500D01*
Y64500D02*Y63500D01*
X729000Y52900D02*Y48900D01*
X730500Y52900D02*X731000Y52400D01*
Y49400D01*
X730500Y48900D02*X731000Y49400D01*
X728500Y48900D02*X730500D01*
X728500Y52900D02*X730500D01*
X732201Y48900D02*X734701Y51400D01*
Y52900D02*Y51400D01*
X732201Y52900D02*X734701D01*
X629000D02*Y48900D01*
X630500Y52900D02*X631000Y52400D01*
Y49400D01*
X630500Y48900D02*X631000Y49400D01*
X628500Y48900D02*X630500D01*
X628500Y52900D02*X630500D01*
X633701D02*X634201Y52400D01*
X632701Y52900D02*X633701D01*
X632201Y52400D02*X632701Y52900D01*
X632201Y52400D02*Y49400D01*
X632701Y48900D01*
X633701Y50900D02*X634201Y50400D01*
X632201Y50900D02*X633701D01*
X632701Y48900D02*X633701D01*
X634201Y49400D01*
Y50400D02*Y49400D01*
X417000Y67000D02*X419000D01*
X419500Y66500D01*
Y65500D01*
X419000Y65000D02*X419500Y65500D01*
X417500Y65000D02*X419000D01*
X417500Y67000D02*Y63000D01*
Y65000D02*X419500Y63000D01*
X420701Y65000D02*X422701Y67000D01*
X420701Y65000D02*X423201D01*
X422701Y67000D02*Y63000D01*
X129000Y52900D02*Y48900D01*
X130500Y52900D02*X131000Y52400D01*
Y49400D01*
X130500Y48900D02*X131000Y49400D01*
X128500Y48900D02*X130500D01*
X128500Y52900D02*X130500D01*
X132701Y48900D02*X133701D01*
X133201Y52900D02*Y48900D01*
X132201Y51900D02*X133201Y52900D01*
X15500Y91000D02*X17000D01*
X15000Y91500D02*X15500Y91000D01*
X15000Y94500D02*Y91500D01*
Y94500D02*X15500Y95000D01*
X17000D01*
X18201Y94500D02*Y91500D01*
Y94500D02*X18701Y95000D01*
X19701D01*
X20201Y94500D01*
Y91500D01*
X19701Y91000D02*X20201Y91500D01*
X18701Y91000D02*X19701D01*
X18201Y91500D02*X18701Y91000D01*
X21402Y95000D02*Y91000D01*
Y95000D02*Y94500D01*
X23902Y92000D01*
Y95000D02*Y91000D01*
X25103Y95000D02*Y91000D01*
Y95000D02*Y94500D01*
X27603Y92000D01*
Y95000D02*Y91000D01*
X28804Y94500D02*X29304Y95000D01*
X30804D01*
X31304Y94500D01*
Y93500D01*
X28804Y91000D02*X31304Y93500D01*
X28804Y91000D02*X31304D01*
X137000Y52000D02*X139000D01*
X139500Y51500D01*
Y50500D01*
X139000Y50000D02*X139500Y50500D01*
X137500Y50000D02*X139000D01*
X137500Y52000D02*Y48000D01*
Y50000D02*X139500Y48000D01*
X141201D02*X142201D01*
X141701Y52000D02*Y48000D01*
X140701Y51000D02*X141701Y52000D01*
X317000Y62000D02*X319000D01*
X319500Y61500D01*
Y60500D01*
X319000Y60000D02*X319500Y60500D01*
X317500Y60000D02*X319000D01*
X317500Y62000D02*Y58000D01*
Y60000D02*X319500Y58000D01*
X320701Y61500D02*X321201Y62000D01*
X322201D01*
X322701Y61500D01*
Y58500D01*
X322201Y58000D02*X322701Y58500D01*
X321201Y58000D02*X322201D01*
X320701Y58500D02*X321201Y58000D01*
Y60000D02*X322701D01*
X329000Y52900D02*Y48900D01*
X330500Y52900D02*X331000Y52400D01*
Y49400D01*
X330500Y48900D02*X331000Y49400D01*
X328500Y48900D02*X330500D01*
X328500Y52900D02*X330500D01*
X332201Y52400D02*X332701Y52900D01*
X333701D01*
X334201Y52400D01*
Y49400D01*
X333701Y48900D02*X334201Y49400D01*
X332701Y48900D02*X333701D01*
X332201Y49400D02*X332701Y48900D01*
Y50900D02*X334201D01*
X229000Y52900D02*Y48900D01*
X230500Y52900D02*X231000Y52400D01*
Y49400D01*
X230500Y48900D02*X231000Y49400D01*
X228500Y48900D02*X230500D01*
X228500Y52900D02*X230500D01*
X232201Y52400D02*X232701Y52900D01*
X234201D01*
X234701Y52400D01*
Y51400D01*
X232201Y48900D02*X234701Y51400D01*
X232201Y48900D02*X234701D01*
X217000Y57000D02*X219000D01*
X219500Y56500D01*
Y55500D01*
X219000Y55000D02*X219500Y55500D01*
X217500Y55000D02*X219000D01*
X217500Y57000D02*Y53000D01*
Y55000D02*X219500Y53000D01*
X220701Y56500D02*X221201Y57000D01*
X222701D01*
X223201Y56500D01*
Y55500D01*
X220701Y53000D02*X223201Y55500D01*
X220701Y53000D02*X223201D01*
X87500Y52500D02*Y49000D01*
Y52500D02*X87000Y53000D01*
X86000D02*X87000D01*
X86000D02*X85500Y52500D01*
Y49000D01*
X82799Y53000D02*X83799D01*
X83299D02*Y49000D01*
X84299Y50000D02*X83299Y49000D01*
X15500Y21000D02*X17000D01*
X15000Y21500D02*X15500Y21000D01*
X15000Y24500D02*Y21500D01*
Y24500D02*X15500Y25000D01*
X17000D01*
X18201Y24500D02*Y21500D01*
Y24500D02*X18701Y25000D01*
X19701D01*
X20201Y24500D01*
Y21500D01*
X19701Y21000D02*X20201Y21500D01*
X18701Y21000D02*X19701D01*
X18201Y21500D02*X18701Y21000D01*
X21402Y25000D02*Y21000D01*
Y25000D02*Y24500D01*
X23902Y22000D01*
Y25000D02*Y21000D01*
X25103Y25000D02*Y21000D01*
Y25000D02*Y24500D01*
X27603Y22000D01*
Y25000D02*Y21000D01*
X29304D02*X30304D01*
X29804Y25000D02*Y21000D01*
X28804Y24000D02*X29804Y25000D01*
M02*
